<svg width="140" height="88" viewBox="0 0 140 88" fill="none" xmlns="http://www.w3.org/2000/svg">
<path fill-rule="evenodd" clip-rule="evenodd" d="M48.4358 0.395173C47.8224 0.131909 47.1653 -0.00237209 46.5021 3.1711e-05C45.164 2.33494e-05 43.8806 0.553625 42.9328 1.53955C41.985 2.52547 41.4502 3.86333 41.4456 5.26005V62.0244L51.5586 61.8783V5.26005C51.5586 4.56776 51.4276 3.88227 51.1733 3.2429C50.919 2.60354 50.5463 2.02286 50.0765 1.53418C49.6067 1.04551 49.0492 0.658438 48.4358 0.395173ZM8.62625 1.53955C7.67848 0.553625 6.39499 2.33494e-05 5.05695 3.1711e-05C4.39375 -0.00237209 3.73663 0.131909 3.12325 0.395173C2.50987 0.658438 1.95231 1.04551 1.48254 1.53418C1.01277 2.02286 0.640042 2.60354 0.385717 3.2429C0.131391 3.88227 0.000474829 4.56776 0.000478827 5.26005V44.0162C-0.0237378 47.2583 0.871109 50.4356 2.57245 53.1481C4.25504 55.9103 6.61781 58.1496 9.41357 59.6319C12.2264 61.2094 15.3711 62.0316 18.5642 62.0244C20.959 62.0332 23.3337 61.5684 25.5628 60.6546C27.784 59.8146 29.8237 58.5234 31.5641 56.8557C33.2893 55.2158 34.6867 53.2357 35.6757 51.0295C36.6443 48.7684 37.1449 46.3195 37.1449 43.8427C37.1449 41.3658 36.6443 38.9169 35.6757 36.6558C34.7165 34.4515 33.3282 32.4797 31.5991 30.8661C29.8362 29.2068 27.788 27.9116 25.5628 27.049C21.0384 25.3537 16.09 25.3537 11.5656 27.049L10.8308 27.396L10.1134 27.7247V5.26005C10.1088 3.86333 9.57402 2.52547 8.62625 1.53955ZM15.3595 51.8137C14.3434 51.3775 13.422 50.7319 12.6504 49.9154C11.8416 49.1449 11.1976 48.2049 10.7605 47.157C10.3233 46.109 10.1028 44.9765 10.1134 43.8335C10.0974 42.3316 10.5051 40.858 11.2857 39.5963C12.0569 38.2977 13.1355 37.2284 14.4176 36.4914C15.6758 35.7244 17.1071 35.3209 18.5642 35.3225C20.0339 35.309 21.4794 35.713 22.7459 36.4914C24.0284 37.2344 25.1114 38.3021 25.8952 39.5963C26.6684 40.8615 27.0754 42.3328 27.0675 43.8335C27.0737 44.9758 26.8513 46.1069 26.4144 47.1542C25.9775 48.2015 25.3359 49.142 24.5305 49.9154C23.7497 50.7343 22.8193 51.3811 21.7943 51.8172C20.7694 52.2533 19.6709 52.4699 18.5642 52.4541C17.4656 52.4677 16.3757 52.2499 15.3595 51.8137ZM71.2248 52.4363H71.3473C73.9193 52.345 76.5962 52.2171 76.5962 46.8292V31.0309C76.5962 30.3362 76.7276 29.6484 76.9828 29.0068C77.238 28.3652 77.612 27.7825 78.0834 27.2921C78.5548 26.8018 79.1143 26.4133 79.7298 26.1492C80.3453 25.885 81.0047 25.7502 81.6702 25.7526C83.0113 25.7526 84.2974 26.3087 85.2457 27.2986C86.1939 28.2885 86.7267 29.631 86.7267 31.0309V46.8292C86.7267 56.4361 82.061 61.5013 72.7295 62.0248H69.8601C60.5287 61.4891 55.8629 56.4239 55.8629 46.8292V31.0309C55.8629 30.3362 55.9943 29.6484 56.2495 29.0068C56.5047 28.3652 56.8788 27.7825 57.3501 27.2921C57.8215 26.8018 58.381 26.4133 58.9965 26.1492C59.612 25.885 60.2714 25.7502 60.9369 25.7526C62.278 25.7526 63.5641 26.3087 64.5124 27.2986C65.4607 28.2885 65.9934 29.631 65.9934 31.0309V46.8292C65.9934 52.2643 68.476 52.3458 70.9637 52.4275L70.964 52.4275C71.051 52.4303 71.138 52.4332 71.2248 52.4363ZM119.618 61.9522V40.0354C119.793 36.9305 121.07 35.3233 123.45 35.3233H124.027C126.599 35.4329 127.894 37.2593 127.894 40.9121V62.0252H138.007V40.9121C138.007 31.3296 133.341 26.2705 124.01 25.7347H123.432C120.274 25.778 117.19 26.7394 114.527 28.5109C111.856 26.7414 108.767 25.7804 105.604 25.7347H105.026C95.6947 26.2705 91.029 31.3296 91.029 40.9121V62.0252H101.177V40.8208C101.177 37.1862 102.472 35.232 105.044 35.232H105.621C108.001 35.3233 109.278 36.9305 109.453 40.0354V61.9522H119.618Z" fill="url(#paint0_linear_224_2412)"/>
<path d="M1.38412 71.5047H3.87896V83.2783H1.38412V71.5047ZM8.72538 79.0576V83.2783H6.35016V75.2983H8.72538V76.4602C8.94183 76.0615 9.2608 75.7425 9.68231 75.5033C10.1152 75.2527 10.5652 75.1274 11.0323 75.1274C11.955 75.1274 12.6727 75.4122 13.1853 75.9818C13.698 76.5514 13.9543 77.3944 13.9543 78.5108V83.2783H11.5791V79.0234C11.5791 78.5108 11.4538 78.1178 11.2031 77.8444C10.9525 77.571 10.6164 77.4343 10.1949 77.4343C9.21524 77.4343 8.72538 77.9754 8.72538 79.0576ZM18.2694 83.2783L14.9031 75.2983H17.4321L19.2947 80.2538L21.1402 75.2983H23.6863L20.3028 83.2783H18.2694ZM30.2611 80.6468L31.987 81.8258C31.2579 82.9081 30.0446 83.4492 28.3472 83.4492C27.1739 83.4492 26.1828 83.0619 25.374 82.2872C24.5765 81.5012 24.1778 80.493 24.1778 79.2627C24.1778 78.0323 24.5765 77.0355 25.374 76.2723C26.1828 75.509 27.1739 75.1274 28.3472 75.1274C29.5092 75.1274 30.4775 75.5204 31.2522 76.3065C32.0382 77.0811 32.4313 78.0893 32.4313 79.331C32.4313 79.5475 32.4199 79.7924 32.3971 80.0658H26.553C26.61 80.4987 26.8321 80.8291 27.2194 81.0569C27.6182 81.2847 28.0511 81.3986 28.5181 81.3986C29.2928 81.3986 29.8738 81.148 30.2611 80.6468ZM26.5872 78.5791H30.039C29.982 78.1349 29.7826 77.7988 29.4409 77.571C29.1105 77.3317 28.7517 77.2121 28.3643 77.2121C27.977 77.2121 27.6068 77.326 27.2536 77.5539C26.9005 77.7817 26.6783 78.1235 26.5872 78.5791ZM36.4265 80.493V83.2783H34.0513V75.2983H36.4265V77.2292C36.6202 76.5343 36.9277 76.0103 37.3492 75.6571C37.7821 75.304 38.2264 75.1274 38.6821 75.1274C39.2061 75.1274 39.6618 75.2242 40.0491 75.4179L39.6219 77.5539C39.2916 77.3944 38.8872 77.3146 38.4087 77.3146C37.0872 77.3146 36.4265 78.3741 36.4265 80.493ZM44.3869 75.2983H46.0615V77.1779H44.3869V83.2783H42.0288V77.1779H40.5763V75.2983H42.0288V72.2395H44.3869V75.2983ZM49.8762 75.2983V83.2783H47.518V75.2983H49.8762ZM47.6376 73.3332C47.3528 73.0597 47.2104 72.7294 47.2104 72.3421C47.2104 71.9547 47.3528 71.6301 47.6376 71.368C47.9338 71.0946 48.287 70.9579 48.6971 70.9579C49.0958 70.9579 49.4376 71.0946 49.7224 71.368C50.0072 71.6301 50.1496 71.9547 50.1496 72.3421C50.1496 72.7294 50.0072 73.0597 49.7224 73.3332C49.4376 73.6066 49.0958 73.7433 48.6971 73.7433C48.287 73.7433 47.9338 73.6066 47.6376 73.3332ZM54.4322 80.493V83.2783H52.057V75.2983H54.4322V77.2292C54.6259 76.5343 54.9335 76.0103 55.355 75.6571C55.7879 75.304 56.2321 75.1274 56.6878 75.1274C57.2119 75.1274 57.6675 75.2242 58.0549 75.4179L57.6277 77.5539C57.2973 77.3944 56.8929 77.3146 56.4144 77.3146C55.093 77.3146 54.4322 78.3741 54.4322 80.493ZM68.6588 80.6468L70.3847 81.8258C69.6556 82.9081 68.4424 83.4492 66.745 83.4492C65.5716 83.4492 64.5805 83.0619 63.7717 82.2872C62.9743 81.5012 62.5755 80.493 62.5755 79.2627C62.5755 78.0323 62.9743 77.0355 63.7717 76.2723C64.5805 75.509 65.5716 75.1274 66.745 75.1274C67.907 75.1274 68.8753 75.5204 69.6499 76.3065C70.436 77.0811 70.829 78.0893 70.829 79.331C70.829 79.5475 70.8176 79.7924 70.7948 80.0658H64.9508C65.0077 80.4987 65.2299 80.8291 65.6172 81.0569C66.0159 81.2847 66.4488 81.3986 66.9159 81.3986C67.6905 81.3986 68.2715 81.148 68.6588 80.6468ZM64.9849 78.5791H68.4367C68.3797 78.1349 68.1804 77.7988 67.8386 77.571C67.5083 77.3317 67.1494 77.2121 66.7621 77.2121C66.3748 77.2121 66.0045 77.326 65.6514 77.5539C65.2982 77.7817 65.0761 78.1235 64.9849 78.5791ZM75.559 80.2708L74.5167 79.9974C73.9585 79.8493 73.4971 79.6671 73.1325 79.4506C72.7794 79.2228 72.5345 78.9779 72.3978 78.7158C72.2725 78.4424 72.1927 78.2203 72.1585 78.0494C72.1244 77.8671 72.113 77.6507 72.1244 77.4001C72.1357 76.8077 72.449 76.2837 73.0642 75.828C73.6794 75.3609 74.4027 75.1274 75.2344 75.1274C76.1343 75.1274 76.9033 75.3438 77.5412 75.7767C78.1792 76.2096 78.5038 76.876 78.5152 77.776H76.2767C76.2653 77.3089 75.9634 77.0754 75.3711 77.0754C75.109 77.0754 74.8983 77.1324 74.7388 77.2463C74.5907 77.3488 74.5224 77.4912 74.5338 77.6735C74.5565 77.9583 74.7901 78.1576 75.2344 78.2716L76.5843 78.6304C77.1767 78.7899 77.6438 79.0348 77.9855 79.3652C78.3387 79.6956 78.5551 79.986 78.6349 80.2367C78.7146 80.4759 78.7545 80.7151 78.7545 80.9544C78.7545 81.7518 78.407 82.367 77.7121 82.7999C77.0286 83.2328 76.2255 83.4492 75.3027 83.4492C74.4255 83.4492 73.6509 83.2043 72.9788 82.7144C72.318 82.2132 71.982 81.541 71.9706 80.698H74.192C74.2034 80.9373 74.323 81.1537 74.5508 81.3474C74.7787 81.5297 75.0521 81.6208 75.3711 81.6208C75.6445 81.6094 75.8723 81.5467 76.0546 81.4328C76.2482 81.3075 76.3451 81.148 76.3451 80.9544C76.3451 80.7835 76.2824 80.6468 76.1571 80.5443C76.0432 80.4417 75.8438 80.3506 75.559 80.2708Z" fill="#2A3860"/>
<path d="M87.7075 80.2708L86.6651 79.9974C86.1069 79.8493 85.6455 79.6671 85.281 79.4506C84.9278 79.2228 84.6829 78.9779 84.5462 78.7158C84.4209 78.4424 84.3411 78.2203 84.307 78.0494C84.2728 77.8671 84.2614 77.6507 84.2728 77.4001C84.2842 76.8077 84.5975 76.2837 85.2126 75.828C85.8278 75.3609 86.5512 75.1274 87.3828 75.1274C88.2828 75.1274 89.0517 75.3438 89.6897 75.7767C90.3276 76.2096 90.6523 76.876 90.6637 77.776H88.4252C88.4138 77.3089 88.1119 77.0754 87.5195 77.0754C87.2575 77.0754 87.0467 77.1324 86.8872 77.2463C86.7391 77.3488 86.6708 77.4912 86.6822 77.6735C86.705 77.9583 86.9385 78.1576 87.3828 78.2716L88.7327 78.6304C89.3251 78.7899 89.7922 79.0348 90.1339 79.3652C90.4871 79.6956 90.7035 79.986 90.7833 80.2367C90.863 80.4759 90.9029 80.7151 90.9029 80.9544C90.9029 81.7518 90.5555 82.367 89.8605 82.7999C89.177 83.2328 88.3739 83.4492 87.4511 83.4492C86.574 83.4492 85.7993 83.2043 85.1272 82.7144C84.4665 82.2132 84.1304 81.541 84.119 80.698H86.3404C86.3518 80.9373 86.4714 81.1537 86.6993 81.3474C86.9271 81.5297 87.2005 81.6208 87.5195 81.6208C87.7929 81.6094 88.0207 81.5467 88.203 81.4328C88.3967 81.3075 88.4935 81.148 88.4935 80.9544C88.4935 80.7835 88.4309 80.6468 88.3055 80.5443C88.1916 80.4417 87.9923 80.3506 87.7075 80.2708ZM94.9322 75.2983V83.2783H92.574V75.2983H94.9322ZM92.6937 73.3332C92.4089 73.0597 92.2665 72.7294 92.2665 72.3421C92.2665 71.9547 92.4089 71.6301 92.6937 71.368C92.9899 71.0946 93.343 70.9579 93.7531 70.9579C94.1518 70.9579 94.4936 71.0946 94.7784 71.368C95.0632 71.6301 95.2056 71.9547 95.2056 72.3421C95.2056 72.7294 95.0632 73.0597 94.7784 73.3332C94.4936 73.6066 94.1518 73.7433 93.7531 73.7433C93.343 73.7433 92.9899 73.6066 92.6937 73.3332ZM105.93 77.4343C105.52 77.4343 105.19 77.571 104.939 77.8444C104.689 78.1064 104.563 78.5108 104.563 79.0576V83.2783H102.188V78.9722C102.177 78.4937 102.046 78.1178 101.795 77.8444C101.544 77.571 101.237 77.4343 100.872 77.4343C100.474 77.4343 100.143 77.5653 99.8813 77.8273C99.6193 78.0779 99.4882 78.488 99.4882 79.0576V83.2783H97.113V75.2983H99.4882V76.4602C99.6705 76.0501 99.9496 75.7312 100.326 75.5033C100.713 75.2641 101.129 75.1445 101.573 75.1445C102.837 75.1445 103.692 75.6115 104.136 76.5457C104.717 75.6001 105.515 75.1274 106.528 75.1274C107.497 75.1274 108.249 75.435 108.784 76.0501C109.331 76.6653 109.604 77.5653 109.604 78.75V83.2783H107.246V79.0234C107.246 78.5222 107.121 78.1349 106.87 77.8615C106.62 77.5767 106.306 77.4343 105.93 77.4343ZM114.107 79.3139C114.107 79.8949 114.284 80.3563 114.637 80.698C115.001 81.0398 115.44 81.2107 115.953 81.2107C116.465 81.2107 116.898 81.0341 117.251 80.681C117.616 80.3278 117.798 79.8721 117.798 79.3139C117.798 78.7443 117.616 78.283 117.251 77.9298C116.898 77.5653 116.465 77.383 115.953 77.383C115.44 77.383 115.001 77.5653 114.637 77.9298C114.284 78.2943 114.107 78.7557 114.107 79.3139ZM111.698 75.2983H114.056V76.2894C114.25 75.9248 114.557 75.64 114.979 75.435C115.412 75.2299 115.884 75.1274 116.397 75.1274C117.456 75.1274 118.362 75.5147 119.114 76.2894C119.877 77.0526 120.259 78.0437 120.259 79.2627C120.259 80.5044 119.877 81.5126 119.114 82.2872C118.362 83.0619 117.456 83.4492 116.397 83.4492C115.884 83.4492 115.412 83.3467 114.979 83.1416C114.557 82.9366 114.25 82.6575 114.056 82.3043V87.1915H111.698V75.2983ZM121.977 70.9579H124.352V83.2783H121.977V70.9579ZM132.138 80.6468L133.864 81.8258C133.135 82.9081 131.921 83.4492 130.224 83.4492C129.051 83.4492 128.059 83.0619 127.251 82.2872C126.453 81.5012 126.054 80.493 126.054 79.2627C126.054 78.0323 126.453 77.0355 127.251 76.2723C128.059 75.509 129.051 75.1274 130.224 75.1274C131.386 75.1274 132.354 75.5204 133.129 76.3065C133.915 77.0811 134.308 78.0893 134.308 79.331C134.308 79.5475 134.297 79.7924 134.274 80.0658H128.43C128.487 80.4987 128.709 80.8291 129.096 81.0569C129.495 81.2847 129.928 81.3986 130.395 81.3986C131.169 81.3986 131.75 81.148 132.138 80.6468ZM128.464 78.5791H131.916C131.859 78.1349 131.659 77.7988 131.318 77.571C130.987 77.3317 130.628 77.2121 130.241 77.2121C129.854 77.2121 129.483 77.326 129.13 77.5539C128.777 77.7817 128.555 78.1235 128.464 78.5791ZM136.167 83.0391C135.882 82.7657 135.74 82.4239 135.74 82.0138C135.74 81.6037 135.882 81.2676 136.167 81.0056C136.452 80.7322 136.799 80.5955 137.21 80.5955C137.62 80.5955 137.967 80.7322 138.252 81.0056C138.548 81.279 138.696 81.6151 138.696 82.0138C138.696 82.4239 138.548 82.7657 138.252 83.0391C137.967 83.3125 137.62 83.4492 137.21 83.4492C136.799 83.4492 136.452 83.3125 136.167 83.0391Z" fill="#38E0A6"/>
<defs>
<linearGradient id="paint0_linear_224_2412" x1="-4.10735" y1="12.7927" x2="144.664" y2="23.485" gradientUnits="userSpaceOnUse">
<stop stop-color="#5013BF"/>
<stop offset="1" stop-color="#00CC99"/>
</linearGradient>
</defs>
</svg>
