<svg width="33" height="33" viewBox="0 0 33 33" fill="none" xmlns="http://www.w3.org/2000/svg">
<path d="M32.937 16.4685C32.937 24.6886 26.9144 31.5018 19.0417 32.7369V21.2289H22.879L23.6091 16.4685H19.0417V13.3794C19.0417 12.0767 19.6798 10.8074 21.7255 10.8074H23.8021V6.75465C23.8021 6.75465 21.9172 6.433 20.1154 6.433C16.354 6.433 13.8953 8.71286 13.8953 12.8403V16.4685H9.71383V21.2289H13.8953V32.7369C6.02258 31.5018 0 24.6886 0 16.4685C0 7.37351 7.37351 0 16.4685 0C25.5635 0 32.937 7.37351 32.937 16.4685Z" fill="white"/>
<path d="M22.879 21.2295L23.6092 16.4691H19.0417V13.3799C19.0417 12.0775 19.6797 10.808 21.7255 10.808H23.8021V6.75524C23.8021 6.75524 21.9175 6.43359 20.1157 6.43359C16.3539 6.43359 13.8953 8.71345 13.8953 12.8409V16.4691H9.71387V21.2295H13.8953V32.7374C14.7338 32.869 15.5931 32.9376 16.4685 32.9376C17.3439 32.9376 18.2032 32.869 19.0417 32.7374V21.2295H22.879Z" fill="#2A3860"/>
</svg>
