<svg width="33" height="33" viewBox="0 0 33 33" fill="none" xmlns="http://www.w3.org/2000/svg">
<path d="M16.47 32.94C25.5661 32.94 32.94 25.5661 32.94 16.47C32.94 7.37387 25.5661 0 16.47 0C7.37387 0 0 7.37387 0 16.47C0 25.5661 7.37387 32.94 16.47 32.94Z" fill="white"/>
<path d="M21.8598 10.2744H11.0806C10.6498 10.2744 10.2233 10.3593 9.82533 10.5242C9.42739 10.6891 9.06583 10.9308 8.76134 11.2355C8.45684 11.5402 8.21537 11.9019 8.05072 12.3C7.88607 12.698 7.80147 13.1246 7.80176 13.5554V19.3849C7.80147 19.8157 7.88607 20.2423 8.05072 20.6403C8.21537 21.0384 8.45684 21.4001 8.76134 21.7048C9.06583 22.0095 9.42739 22.2512 9.82533 22.4161C10.2233 22.581 10.6498 22.6659 11.0806 22.6659H21.8598C22.2905 22.6659 22.7171 22.581 23.115 22.4161C23.513 22.2512 23.8745 22.0095 24.179 21.7048C24.4835 21.4001 24.725 21.0384 24.8896 20.6403C25.0543 20.2423 25.1389 19.8157 25.1386 19.3849V13.5554C25.1389 13.1246 25.0543 12.698 24.8896 12.3C24.725 11.9019 24.4835 11.5402 24.179 11.2355C23.8745 10.9308 23.513 10.6891 23.115 10.5242C22.7171 10.3593 22.2905 10.2744 21.8598 10.2744ZM14.186 19.127V13.8133L18.7543 16.4702L14.186 19.127Z" fill="#2A3860"/>
</svg>
