<svg width="34" height="33" viewBox="0 0 34 33" fill="none" xmlns="http://www.w3.org/2000/svg">
<path d="M17.0417 0C26.1375 0 33.5102 7.37376 33.5102 16.4685C33.5102 25.5633 26.1375 32.937 17.0417 32.937C7.94587 32.937 0.573242 25.5632 0.573242 16.4685C0.573242 7.37387 7.94598 0 17.0417 0Z" fill="white"/>
<path d="M9.85342 22.6278H12.9372V12.3494H9.85342V22.6278ZM21.8672 11.9933C20.3706 11.9933 19.0315 12.5399 18.0816 13.7462V12.3156H14.9865V22.6279H18.0816V17.0513C18.0816 15.8727 19.1613 14.723 20.5138 14.723C21.8662 14.723 22.1997 15.8727 22.1997 17.0224V22.6269H25.2835V16.7929C25.2834 12.7406 23.3648 11.9933 21.8672 11.9933ZM11.3809 11.3222C12.2331 11.3222 12.9249 10.6305 12.9249 9.77823C12.9249 8.92597 12.2331 8.23438 11.3809 8.23438C10.5286 8.23438 9.83691 8.92609 9.83691 9.77834C9.83691 10.6306 10.5286 11.3222 11.3809 11.3222Z" fill="#2A3860"/>
</svg>
