<svg width="34" height="33" viewBox="0 0 34 33" fill="none" xmlns="http://www.w3.org/2000/svg">
<path d="M16.9929 32.937C26.0882 32.937 33.4614 25.5638 33.4614 16.4685C33.4614 7.37319 26.0882 0 16.9929 0C7.89761 0 0.524414 7.37319 0.524414 16.4685C0.524414 25.5638 7.89761 32.937 16.9929 32.937Z" fill="white"/>
<path d="M20.4911 7.31836H13.5011C10.3831 7.31836 7.85059 9.85085 7.85059 12.9689V19.9588C7.85059 23.0769 10.3831 25.6094 13.5011 25.6094H20.4911C23.6091 25.6094 26.1416 23.0769 26.1416 19.9588V12.9689C26.1416 9.85085 23.6091 7.31836 20.4911 7.31836ZM24.0995 19.9662C24.0995 21.957 22.4819 23.5819 20.4837 23.5819H13.4938C11.5029 23.5819 9.87804 21.9643 9.87804 19.9662V12.9762C9.87804 10.9853 11.4956 9.36045 13.4938 9.36045H20.4837C22.4746 9.36045 24.0995 10.978 24.0995 12.9762V19.9662Z" fill="#2A3860"/>
<path d="M16.9925 11.791C14.4161 11.791 12.3154 13.8917 12.3154 16.4681C12.3154 19.0445 14.4161 21.1451 16.9925 21.1451C19.5689 21.1451 21.6695 19.0445 21.6695 16.4681C21.6695 13.8917 19.5689 11.791 16.9925 11.791ZM16.9925 19.308C15.4261 19.308 14.1526 18.0344 14.1526 16.4681C14.1526 14.9017 15.4261 13.6282 16.9925 13.6282C18.5588 13.6282 19.8324 14.9017 19.8324 16.4681C19.8324 18.0344 18.5588 19.308 16.9925 19.308Z" fill="#2A3860"/>
<path d="M22.0254 12.3031C22.4563 12.2332 22.7489 11.8273 22.6791 11.3964C22.6092 10.9655 22.2033 10.6728 21.7724 10.7427C21.3415 10.8125 21.0488 11.2185 21.1187 11.6494C21.1885 12.0802 21.5945 12.3729 22.0254 12.3031Z" fill="#2A3860"/>
</svg>
